<?xml version="1.0" encoding="utf-8"?>
<!-- Generator: Adobe Illustrator 24.0.1, SVG Export Plug-In . SVG Version: 6.00 Build 0)  -->
<svg version="1.1" id="Layer_1" xmlns="http://www.w3.org/2000/svg" xmlns:xlink="http://www.w3.org/1999/xlink" x="0px" y="0px"
	 viewBox="0 0 160.3 206.6" style="enable-background:new 0 0 160.3 206.6;" xml:space="preserve">
<style type="text/css">
	.st0{fill-rule:evenodd;clip-rule:evenodd;fill:#1C8A99;}
	.st16{fill-rule:evenodd;clip-rule:evenodd;fill:url(#SVGID_1_);}
	.st2{fill-rule:evenodd;clip-rule:evenodd;fill:url(#SVGID_2_);}
	.st3{fill-rule:evenodd;clip-rule:evenodd;fill:url(#SVGID_3_);}
	.st4{fill-rule:evenodd;clip-rule:evenodd;fill:url(#SVGID_4_);}
	.st5{fill:url(#SVGID_5_);stroke:#FFFFFF;stroke-width:2;stroke-miterlimit:10;}
</style>
<g id="desenho_6_">
	<path class="st0" d="M160.3,51.4c0,28.4-23,51.4-51.4,51.4s-51.4,23-51.4,51.4s23,51.4,51.4,51.4c-56.8,0-102.8-46-102.8-102.8
		S52.1,0,108.9,0C137.3,0,160.3,23,160.3,51.4z"/>
	
		<radialGradient id="SVGID_1_" cx="125.3879" cy="-785.8567" r="124.6117" gradientTransform="matrix(1 0 0 -1 0 -664)" gradientUnits="userSpaceOnUse">
		<stop  offset="0" style="stop-color:#197D8B"/>
		<stop  offset="1" style="stop-color:#27C4D9"/>
	</radialGradient>
	<path class="st16" d="M160.3,51.4c0,28.4-23,51.4-51.4,51.4c-0.9,0-1.9,0-2.8,0.1c-37.5,1.1-69.2,25.5-81.2,59.2
		C13,145.3,6.1,124.9,6.1,102.8C6.1,46,52.1,0,108.8,0C137.3,0,160.3,23,160.3,51.4z"/>
	
		<radialGradient id="SVGID_2_" cx="87.5801" cy="-820.6477" r="72.3052" gradientTransform="matrix(1 0 0 -1 0 -664)" gradientUnits="userSpaceOnUse">
		<stop  offset="0" style="stop-color:#27C4D9"/>
		<stop  offset="1" style="stop-color:#197F8C"/>
	</radialGradient>
	<path class="st2" d="M106.2,205.6c-33.6-0.8-63.3-17.8-81.4-43.5c2.4-6.7,5.5-13,9.3-18.8c5,33.4,32.7,59.4,66.9,61.8
		c0.1,0,0.1,0,0.2,0C102.8,205.3,104.5,205.5,106.2,205.6z"/>
	
		<radialGradient id="SVGID_3_" cx="95.505" cy="-816.2246" r="74.5873" gradientTransform="matrix(1 0 0 -1 0 -664)" gradientUnits="userSpaceOnUse">
		<stop  offset="0" style="stop-color:#197F8C"/>
		<stop  offset="1" style="stop-color:#156873"/>
	</radialGradient>
	<path class="st3" d="M100.7,204.9c-29.8-2.8-53.1-27.9-53.1-58.4c0-8.4,1.8-16.5,5-23.7c14.7-12,33.2-19.4,53.5-20
		c-27.1,1.5-48.6,23.9-48.6,51.4C57.5,179.8,76.2,201.1,100.7,204.9z"/>
	
		<radialGradient id="SVGID_4_" cx="92.4594" cy="-828.4371" r="57.8786" gradientTransform="matrix(1 0 0 -1 0 -664)" gradientUnits="userSpaceOnUse">
		<stop  offset="3.400000e-02" style="stop-color:#27C4D9"/>
		<stop  offset="1" style="stop-color:#197F8C"/>
	</radialGradient>
	<path class="st4" d="M101,205c-34.2-2.4-61.9-28.4-66.9-61.8c5-7.7,11.3-14.6,18.4-20.4c-3.2,7.2-5,15.3-5,23.7
		c0,30.5,23.3,55.6,53.1,58.4C100.8,205,100.9,205,101,205z"/>
	
		<linearGradient id="SVGID_5_" gradientUnits="userSpaceOnUse" x1="1" y1="-849.35" x2="64.4" y2="-849.35" gradientTransform="matrix(1 0 0 -1 0 -664)">
		<stop  offset="0" style="stop-color:#FFB054"/>
		<stop  offset="1" style="stop-color:#E48B25"/>
	</linearGradient>
	<path class="st5" d="M64.4,194.9c0,5.9-4.8,10.7-10.7,10.7H16.1c-8.3,0-15.1-6.8-15.1-15c0-8.3,6.7-15.1,15.1-15.1
		c1.1,0,2.2,0.1,3.3,0.4c3.4-6.4,10.1-10.8,17.9-10.8c11.1,0,20.1,8.9,20.3,19.9C61.5,186.5,64.4,190.4,64.4,194.9z"/>
</g>
</svg>
