<?xml version="1.0" encoding="utf-8"?>
<!-- Generator: Adobe Illustrator 27.1.1, SVG Export Plug-In . SVG Version: 6.00 Build 0)  -->
<svg version="1.1" id="Layer_1" xmlns="http://www.w3.org/2000/svg" xmlns:xlink="http://www.w3.org/1999/xlink" x="0px" y="0px"
	 viewBox="0 0 957.6 206.6" style="enable-background:new 0 0 957.6 206.6;" xml:space="preserve">
<style type="text/css">
	.st0{fill-rule:evenodd;clip-rule:evenodd;fill:#1C8A99;}
	.st1{fill-rule:evenodd;clip-rule:evenodd;fill:url(#SVGID_1_);}
	.st2{fill-rule:evenodd;clip-rule:evenodd;fill:url(#SVGID_00000160190188155808351140000006189786487708561562_);}
	.st3{fill-rule:evenodd;clip-rule:evenodd;fill:url(#SVGID_00000054980908567883068870000012606416476300913292_);}
	.st4{fill-rule:evenodd;clip-rule:evenodd;fill:url(#SVGID_00000144299467441698515880000000894172914169299609_);}
	.st5{fill:url(#SVGID_00000005980609091016760640000016876920459977109400_);stroke:#FFFFFF;stroke-width:2;stroke-miterlimit:10;}
	.st6{fill:#0E454D;}
	.st7{fill:#E48B25;}
</style>
<g id="desenho_6_">
	<path class="st0" d="M160.3,51.4c0,28.4-23,51.4-51.4,51.4c-28.4,0-51.4,23-51.4,51.4c0,28.4,23,51.4,51.4,51.4
		c-56.8,0-102.8-46-102.8-102.8S52.1,0,108.9,0C137.2,0,160.3,23,160.3,51.4z"/>
	
		<radialGradient id="SVGID_1_" cx="125.3879" cy="993.8567" r="124.6117" gradientTransform="matrix(1 0 0 1 0 -872)" gradientUnits="userSpaceOnUse">
		<stop  offset="0" style="stop-color:#197D8B"/>
		<stop  offset="1" style="stop-color:#27C4D9"/>
	</radialGradient>
	<path class="st1" d="M160.3,51.4c0,28.4-23,51.4-51.4,51.4c-0.9,0-1.9,0-2.8,0.1c-37.5,1.1-69.2,25.5-81.2,59.2
		C13,145.3,6.1,124.9,6.1,102.8C6.1,46,52.1,0,108.8,0C137.2,0,160.3,23,160.3,51.4z"/>
	
		<radialGradient id="SVGID_00000142881779851808296010000005793205477423521442_" cx="87.5801" cy="1028.6477" r="72.3052" gradientTransform="matrix(1 0 0 1 0 -872)" gradientUnits="userSpaceOnUse">
		<stop  offset="0" style="stop-color:#27C4D9"/>
		<stop  offset="1" style="stop-color:#197F8C"/>
	</radialGradient>
	<path style="fill-rule:evenodd;clip-rule:evenodd;fill:url(#SVGID_00000142881779851808296010000005793205477423521442_);" d="
		M106.2,205.6c-33.6-0.8-63.2-17.8-81.4-43.5c2.4-6.7,5.5-13,9.3-18.8c5,33.4,32.7,59.4,66.9,61.8c0.1,0,0.1,0,0.2,0
		C102.8,205.3,104.5,205.5,106.2,205.6z"/>
	
		<radialGradient id="SVGID_00000160882190622460605120000007819977654838390175_" cx="95.505" cy="1024.2246" r="74.5873" gradientTransform="matrix(1 0 0 1 0 -872)" gradientUnits="userSpaceOnUse">
		<stop  offset="0" style="stop-color:#197F8C"/>
		<stop  offset="1" style="stop-color:#156873"/>
	</radialGradient>
	<path style="fill-rule:evenodd;clip-rule:evenodd;fill:url(#SVGID_00000160882190622460605120000007819977654838390175_);" d="
		M100.7,204.9c-29.8-2.8-53.1-27.9-53.1-58.4c0-8.4,1.8-16.5,5-23.7c14.7-12,33.2-19.4,53.5-20c-27.1,1.5-48.6,23.9-48.6,51.4
		C57.5,179.8,76.2,201.1,100.7,204.9z"/>
	
		<radialGradient id="SVGID_00000114782213184838498720000008759236715204631467_" cx="92.4594" cy="1036.4371" r="57.8786" gradientTransform="matrix(1 0 0 1 0 -872)" gradientUnits="userSpaceOnUse">
		<stop  offset="3.400000e-02" style="stop-color:#27C4D9"/>
		<stop  offset="1" style="stop-color:#197F8C"/>
	</radialGradient>
	<path style="fill-rule:evenodd;clip-rule:evenodd;fill:url(#SVGID_00000114782213184838498720000008759236715204631467_);" d="
		M101,205c-34.2-2.4-61.9-28.4-66.9-61.8c5-7.7,11.3-14.6,18.4-20.4c-3.2,7.2-5,15.3-5,23.7c0,30.5,23.3,55.6,53.1,58.4
		C100.8,205,100.9,205,101,205z"/>
	
		<linearGradient id="SVGID_00000121240029541332347570000006894312421183156873_" gradientUnits="userSpaceOnUse" x1="1" y1="1057.345" x2="64.37" y2="1057.345" gradientTransform="matrix(1 0 0 1 0 -872)">
		<stop  offset="0" style="stop-color:#FFB054"/>
		<stop  offset="1" style="stop-color:#E48B25"/>
	</linearGradient>
	
		<path style="fill:url(#SVGID_00000121240029541332347570000006894312421183156873_);stroke:#FFFFFF;stroke-width:2;stroke-miterlimit:10;" d="
		M64.4,194.9c0,5.9-4.8,10.7-10.7,10.7H16.1c-8.3,0-15.1-6.8-15.1-15c0-8.3,6.7-15.1,15.1-15.1c1.1,0,2.2,0.1,3.3,0.4
		c3.4-6.4,10.1-10.8,17.9-10.8c11.1,0,20.1,8.9,20.3,19.9C61.5,186.5,64.4,190.4,64.4,194.9z"/>
</g>
<g>
	<path class="st6" d="M285.7,160.6V55.4h23.7v40.5h36.3V55.4h23.9v105.3h-23.9v-43.9h-36.3v43.9H285.7z"/>
	<path class="st6" d="M404.4,68.8c-4,0-7.3-1.2-9.8-3.5c-2.6-2.3-3.9-5.3-3.9-9c0-3.7,1.3-6.6,3.9-8.9c2.6-2.3,5.9-3.4,9.8-3.4
		c4.1,0,7.4,1.1,9.9,3.4c2.5,2.3,3.8,5.2,3.8,8.9c0,3.7-1.3,6.6-3.8,9C411.8,67.6,408.5,68.8,404.4,68.8z M392.6,160.6V80.5h23.7
		v80.1H392.6z"/>
	<path class="st6" d="M465.7,162.6c-5,0-9.4-1-13.5-2.9s-7.5-4.7-10.3-8.3c-2.9-3.6-5.1-8-6.6-13.2c-1.6-5.2-2.3-11-2.3-17.6
		c0-6.6,0.9-12.4,2.8-17.6c1.9-5.2,4.4-9.6,7.4-13.2c3.1-3.6,6.6-6.4,10.7-8.3s8.2-2.9,12.4-2.9c4.5,0,8.2,0.8,11.1,2.3
		c2.9,1.5,5.8,3.6,8.6,6.1l-1-12.3V47.4h23.7v113.2h-19.4l-1.6-7.9H487c-2.8,2.8-6.1,5.1-9.8,7C473.4,161.6,469.6,162.6,465.7,162.6
		z M471.9,143.2c2.6,0,4.9-0.5,7-1.6c2.1-1.1,4.1-3,6.1-5.7v-32.8c-2.2-1.9-4.4-3.3-6.6-4c-2.3-0.8-4.5-1.1-6.6-1.1
		c-3.8,0-7.1,1.8-10,5.4c-2.9,3.6-4.4,9.2-4.4,16.9c0,8,1.3,13.8,3.8,17.4C463.6,141.4,467.2,143.2,471.9,143.2z"/>
	<path class="st6" d="M529.7,160.6V80.5H549l1.6,14h0.6c2.9-5.5,6.4-9.5,10.5-12.1c4.1-2.6,8.2-3.9,12.3-3.9c2.3,0,4.1,0.1,5.6,0.4
		c1.5,0.3,2.8,0.7,4,1.2l-3.9,20.5c-1.5-0.4-2.9-0.8-4.2-1c-1.3-0.2-2.8-0.3-4.5-0.3c-3,0-6.2,1.1-9.4,3.2c-3.3,2.2-6,6-8.2,11.5
		v46.5H529.7z"/>
	<path class="st6" d="M626.7,162.6c-5.1,0-10-0.9-14.7-2.8c-4.7-1.9-8.9-4.6-12.5-8.2c-3.6-3.6-6.5-7.9-8.6-13.2
		c-2.2-5.2-3.2-11.2-3.2-17.8c0-6.7,1.1-12.6,3.2-17.8c2.2-5.2,5-9.6,8.6-13.2c3.6-3.6,7.8-6.3,12.5-8.2c4.7-1.9,9.6-2.8,14.7-2.8
		c5.1,0,9.9,0.9,14.6,2.8c4.7,1.9,8.8,4.6,12.4,8.2c3.6,3.6,6.5,7.9,8.6,13.2c2.2,5.2,3.2,11.2,3.2,17.8c0,6.7-1.1,12.6-3.2,17.8
		c-2.2,5.2-5,9.6-8.6,13.2c-3.6,3.6-7.8,6.3-12.4,8.2C636.6,161.6,631.8,162.6,626.7,162.6z M626.7,143.4c4.8,0,8.5-2,11-6.1
		c2.5-4.1,3.7-9.6,3.7-16.6c0-7-1.2-12.5-3.7-16.6c-2.5-4.1-6.1-6.1-11-6.1c-5,0-8.6,2-11.1,6.1c-2.4,4.1-3.6,9.6-3.6,16.6
		c0,7,1.2,12.5,3.6,16.6C618.1,141.3,621.8,143.4,626.7,143.4z"/>
	<path class="st6" d="M678.4,128.2v-16.8h39.7v16.8H678.4z"/>
	<path class="st7" d="M764.6,162.6c-10,0-18-3.6-23.8-10.9c-5.9-7.3-8.8-17.5-8.8-30.6c0-6.5,0.9-12.3,2.8-17.4
		c1.9-5.2,4.4-9.5,7.5-13.1c3.1-3.6,6.7-6.3,10.7-8.2c4-1.9,8.2-2.9,12.5-2.9c4.5,0,8.3,0.8,11.5,2.3c3.1,1.6,6.2,3.7,9.4,6.4
		l-0.6-12.8V46.6h18.6v114H789l-1.3-8.6H787c-2.9,2.9-6.3,5.4-10.2,7.4C773,161.5,768.9,162.6,764.6,162.6z M769.1,147.2
		c5.9,0,11.5-3,16.6-8.9v-37c-2.8-2.5-5.5-4.2-8.2-5.2c-2.6-1-5.3-1.5-8-1.5c-5.2,0-9.5,2.3-13.1,6.8c-3.6,4.5-5.3,11-5.3,19.4
		c0,8.6,1.5,15.2,4.6,19.6C758.9,145,763.3,147.2,769.1,147.2z"/>
	<path class="st7" d="M866.3,162.6c-3.7,0-7.3-0.9-11.1-2.7s-7.2-4.3-10.6-7.7h-0.5l-1.6,8.4h-14.7v-114h18.6V76L846,89.3
		c3.3-2.9,7-5.3,10.9-7.1c3.9-1.8,7.9-2.7,12-2.7c5,0,9.4,0.9,13.2,2.8c3.9,1.9,7.2,4.6,9.8,8.1c2.7,3.5,4.7,7.7,6.1,12.7
		c1.4,5,2.1,10.5,2.1,16.6c0,6.8-0.9,12.8-2.8,18.2c-1.9,5.3-4.4,9.8-7.5,13.5c-3.1,3.7-6.7,6.5-10.8,8.4
		C875,161.6,870.7,162.6,866.3,162.6z M862.4,147.2c5.3,0,9.7-2.3,13.2-6.9c3.6-4.6,5.3-11.4,5.3-20.4c0-8-1.3-14.2-4-18.6
		c-2.7-4.4-7.1-6.6-13.1-6.6c-5.6,0-11.4,3-17.4,8.9v37c2.8,2.5,5.6,4.2,8.3,5.2S860.1,147.2,862.4,147.2z"/>
</g>
</svg>
