<?xml version="1.0" encoding="utf-8"?>
<!-- Generator: Adobe Illustrator 27.1.1, SVG Export Plug-In . SVG Version: 6.00 Build 0)  -->
<svg version="1.1" id="Layer_1" xmlns="http://www.w3.org/2000/svg" xmlns:xlink="http://www.w3.org/1999/xlink" x="0px" y="0px"
	 viewBox="0 0 256.1 274" style="enable-background:new 0 0 256.1 274;" xml:space="preserve">
<style type="text/css">
	.st0{fill-rule:evenodd;clip-rule:evenodd;fill:#1C8A99;}
	.st1{fill-rule:evenodd;clip-rule:evenodd;fill:url(#SVGID_1_);}
	.st2{fill-rule:evenodd;clip-rule:evenodd;fill:url(#SVGID_00000130625731918950872030000016253010065849047725_);}
	.st3{fill-rule:evenodd;clip-rule:evenodd;fill:url(#SVGID_00000171679069758982728720000016194955011383739287_);}
	.st4{fill-rule:evenodd;clip-rule:evenodd;fill:url(#SVGID_00000180335674605342224280000007874100464746953620_);}
	.st5{fill:url(#SVGID_00000110453585943237536610000003887103121827995528_);stroke:#FFFFFF;stroke-width:2;stroke-miterlimit:10;}
	.st6{fill:#FFFFFF;}
	.st7{fill:#E48B25;}
</style>
<g id="desenho_7_">
	<path class="st0" d="M207.5,51.4c0,28.4-23,51.4-51.4,51.4c-28.4,0-51.4,23-51.4,51.4c0,28.4,23,51.4,51.4,51.4
		c-56.8,0-102.8-46-102.8-102.8S99.3,0,156.1,0C184.5,0,207.5,23,207.5,51.4z"/>
	
		<radialGradient id="SVGID_1_" cx="172.6324" cy="154.1433" r="124.6117" gradientTransform="matrix(1 0 0 -1 0 276)" gradientUnits="userSpaceOnUse">
		<stop  offset="0" style="stop-color:#197D8B"/>
		<stop  offset="1" style="stop-color:#27C4D9"/>
	</radialGradient>
	<path class="st1" d="M207.5,51.4c0,28.4-23,51.4-51.4,51.4c-0.9,0-1.9,0-2.8,0.1c-37.5,1.1-69.2,25.5-81.2,59.2
		c-11.9-16.8-18.8-37.2-18.8-59.3C53.3,46,99.3,0,156.1,0C184.5,0,207.5,23,207.5,51.4z"/>
	
		<radialGradient id="SVGID_00000056397960679467931270000006533756096840711849_" cx="134.8246" cy="119.3523" r="72.3052" gradientTransform="matrix(1 0 0 -1 0 276)" gradientUnits="userSpaceOnUse">
		<stop  offset="0" style="stop-color:#27C4D9"/>
		<stop  offset="1" style="stop-color:#197F8C"/>
	</radialGradient>
	<path style="fill-rule:evenodd;clip-rule:evenodd;fill:url(#SVGID_00000056397960679467931270000006533756096840711849_);" d="
		M153.4,205.6c-33.6-0.8-63.2-17.8-81.4-43.5c2.4-6.7,5.5-13,9.3-18.8c5,33.4,32.7,59.4,66.9,61.8c0.1,0,0.1,0,0.1,0
		C150.1,205.3,151.8,205.5,153.4,205.6z"/>
	
		<radialGradient id="SVGID_00000055675612288898317420000017913868977646177437_" cx="142.7495" cy="123.7754" r="74.5873" gradientTransform="matrix(1 0 0 -1 0 276)" gradientUnits="userSpaceOnUse">
		<stop  offset="0" style="stop-color:#197F8C"/>
		<stop  offset="1" style="stop-color:#156873"/>
	</radialGradient>
	<path style="fill-rule:evenodd;clip-rule:evenodd;fill:url(#SVGID_00000055675612288898317420000017913868977646177437_);" d="
		M147.9,204.9c-29.8-2.8-53.1-27.9-53.1-58.4c0-8.4,1.8-16.5,5-23.7c14.7-12,33.2-19.4,53.5-20c-27.1,1.5-48.6,23.9-48.6,51.4
		C104.7,179.8,123.4,201.1,147.9,204.9z"/>
	
		<radialGradient id="SVGID_00000047741689424733609850000000781568572917773202_" cx="139.7039" cy="111.5629" r="57.8786" gradientTransform="matrix(1 0 0 -1 0 276)" gradientUnits="userSpaceOnUse">
		<stop  offset="3.400000e-02" style="stop-color:#27C4D9"/>
		<stop  offset="1" style="stop-color:#197F8C"/>
	</radialGradient>
	<path style="fill-rule:evenodd;clip-rule:evenodd;fill:url(#SVGID_00000047741689424733609850000000781568572917773202_);" d="
		M148.3,205c-34.2-2.4-61.9-28.4-66.9-61.8c5-7.7,11.3-14.6,18.4-20.4c-3.2,7.2-5,15.3-5,23.7c0,30.5,23.3,55.6,53.1,58.4
		C148.1,205,148.2,205,148.3,205z"/>
	
		<linearGradient id="SVGID_00000000928717541054261480000013240225518292306841_" gradientUnits="userSpaceOnUse" x1="48.25" y1="90.655" x2="111.61" y2="90.655" gradientTransform="matrix(1 0 0 -1 0 276)">
		<stop  offset="0" style="stop-color:#FFB054"/>
		<stop  offset="1" style="stop-color:#E48B25"/>
	</linearGradient>
	
		<path style="fill:url(#SVGID_00000000928717541054261480000013240225518292306841_);stroke:#FFFFFF;stroke-width:2;stroke-miterlimit:10;" d="
		M111.6,194.9c0,5.9-4.8,10.7-10.7,10.7H63.3c-8.3,0-15.1-6.7-15.1-15.1c0-8.3,6.7-15.1,15.1-15.1c1.1,0,2.2,0.1,3.3,0.4
		c3.4-6.4,10.1-10.8,17.9-10.8c11.1,0,20.1,8.9,20.3,19.9C108.8,186.5,111.6,190.4,111.6,194.9z"/>
</g>
<g>
	<path class="st6" d="M35.5,269.3v-31.7h7.1v12.2h10.9v-12.2h7.2v31.7h-7.2V256H42.7v13.2H35.5z"/>
	<path class="st6" d="M71.3,241.6c-1.2,0-2.2-0.3-3-1c-0.8-0.7-1.2-1.6-1.2-2.7c0-1.1,0.4-2,1.2-2.7c0.8-0.7,1.8-1,3-1
		c1.2,0,2.2,0.3,3,1c0.8,0.7,1.1,1.6,1.1,2.7c0,1.1-0.4,2-1.1,2.7C73.5,241.2,72.5,241.6,71.3,241.6z M67.7,269.3v-24.1h7.1v24.1
		H67.7z"/>
	<path class="st6" d="M89.7,269.8c-1.5,0-2.8-0.3-4.1-0.9c-1.2-0.6-2.3-1.4-3.1-2.5c-0.9-1.1-1.5-2.4-2-4c-0.5-1.6-0.7-3.3-0.7-5.3
		c0-2,0.3-3.7,0.9-5.3c0.6-1.6,1.3-2.9,2.2-4c0.9-1.1,2-1.9,3.2-2.5c1.2-0.6,2.5-0.9,3.7-0.9c1.4,0,2.5,0.2,3.4,0.7
		c0.9,0.5,1.7,1.1,2.6,1.8l-0.3-3.7v-8.2h7.1v34.1h-5.8l-0.5-2.4h-0.2c-0.8,0.8-1.8,1.5-3,2.1C92,269.6,90.9,269.8,89.7,269.8z
		 M91.6,264c0.8,0,1.5-0.2,2.1-0.5c0.6-0.3,1.2-0.9,1.8-1.7v-9.9c-0.6-0.6-1.3-1-2-1.2c-0.7-0.2-1.3-0.3-2-0.3c-1.1,0-2.1,0.5-3,1.6
		c-0.9,1.1-1.3,2.8-1.3,5.1c0,2.4,0.4,4.2,1.1,5.3C89.1,263.5,90.2,264,91.6,264z"/>
	<path class="st6" d="M109,269.3v-24.1h5.8l0.5,4.2h0.2c0.9-1.7,1.9-2.9,3.2-3.6c1.2-0.8,2.5-1.2,3.7-1.2c0.7,0,1.2,0,1.7,0.1
		c0.4,0.1,0.8,0.2,1.2,0.4l-1.2,6.2c-0.5-0.1-0.9-0.2-1.3-0.3c-0.4-0.1-0.8-0.1-1.4-0.1c-0.9,0-1.9,0.3-2.8,1
		c-1,0.6-1.8,1.8-2.5,3.5v14H109z"/>
	<path class="st6" d="M138.2,269.8c-1.5,0-3-0.3-4.4-0.9c-1.4-0.6-2.7-1.4-3.8-2.5c-1.1-1.1-2-2.4-2.6-4c-0.6-1.6-1-3.4-1-5.4
		c0-2,0.3-3.8,1-5.4c0.6-1.6,1.5-2.9,2.6-4c1.1-1.1,2.3-1.9,3.8-2.5c1.4-0.6,2.9-0.9,4.4-0.9c1.5,0,3,0.3,4.4,0.9
		c1.4,0.6,2.7,1.4,3.7,2.5c1.1,1.1,2,2.4,2.6,4c0.6,1.6,1,3.4,1,5.4c0,2-0.3,3.8-1,5.4c-0.6,1.6-1.5,2.9-2.6,4
		c-1.1,1.1-2.3,1.9-3.7,2.5C141.2,269.6,139.7,269.8,138.2,269.8z M138.2,264.1c1.5,0,2.6-0.6,3.3-1.8c0.7-1.2,1.1-2.9,1.1-5
		c0-2.1-0.4-3.8-1.1-5c-0.7-1.2-1.8-1.8-3.3-1.8c-1.5,0-2.6,0.6-3.3,1.8c-0.7,1.2-1.1,2.9-1.1,5c0,2.1,0.4,3.8,1.1,5
		C135.6,263.4,136.7,264.1,138.2,264.1z"/>
	<path class="st6" d="M153.8,259.5v-5.1h12v5.1H153.8z"/>
	<path class="st7" d="M179.7,269.8c-3,0-5.4-1.1-7.2-3.3c-1.8-2.2-2.7-5.3-2.7-9.2c0-1.9,0.3-3.7,0.9-5.3c0.6-1.6,1.3-2.9,2.3-3.9
		c0.9-1.1,2-1.9,3.2-2.5c1.2-0.6,2.5-0.9,3.8-0.9c1.4,0,2.5,0.2,3.5,0.7c0.9,0.5,1.9,1.1,2.8,1.9l-0.2-3.8v-8.7h5.6v34.3h-4.6
		l-0.4-2.6h-0.2c-0.9,0.9-1.9,1.6-3.1,2.2C182.3,269.5,181,269.8,179.7,269.8z M181.1,265.2c1.8,0,3.5-0.9,5-2.7v-11.1
		c-0.8-0.7-1.7-1.3-2.5-1.6c-0.8-0.3-1.6-0.4-2.4-0.4c-1.6,0-2.9,0.7-3.9,2c-1.1,1.4-1.6,3.3-1.6,5.8c0,2.6,0.5,4.6,1.4,5.9
		C178,264.5,179.4,265.2,181.1,265.2z"/>
	<path class="st7" d="M210.4,269.8c-1.1,0-2.2-0.3-3.3-0.8c-1.1-0.5-2.2-1.3-3.2-2.3h-0.1l-0.5,2.5h-4.4v-34.3h5.6v8.9l-0.1,4
		c1-0.9,2.1-1.6,3.3-2.1c1.2-0.6,2.4-0.8,3.6-0.8c1.5,0,2.8,0.3,4,0.9c1.2,0.6,2.2,1.4,3,2.4c0.8,1.1,1.4,2.3,1.8,3.8
		c0.4,1.5,0.6,3.2,0.6,5c0,2-0.3,3.9-0.9,5.5c-0.6,1.6-1.3,3-2.3,4.1c-0.9,1.1-2,1.9-3.3,2.5C213,269.5,211.7,269.8,210.4,269.8z
		 M209.2,265.2c1.6,0,2.9-0.7,4-2.1c1.1-1.4,1.6-3.4,1.6-6.2c0-2.4-0.4-4.3-1.2-5.6c-0.8-1.3-2.1-2-3.9-2c-1.7,0-3.4,0.9-5.3,2.7
		v11.1c0.8,0.7,1.7,1.3,2.5,1.6C207.7,265.1,208.5,265.2,209.2,265.2z"/>
</g>
</svg>
