<?xml version="1.0" encoding="utf-8"?>
<!-- Generator: Adobe Illustrator 27.1.1, SVG Export Plug-In . SVG Version: 6.00 Build 0)  -->
<svg version="1.1" id="Layer_1" xmlns="http://www.w3.org/2000/svg" xmlns:xlink="http://www.w3.org/1999/xlink" x="0px" y="0px"
	 viewBox="0 0 721.9 94" style="enable-background:new 0 0 721.9 94;" xml:space="preserve">
<style type="text/css">
	.st0{fill:#0E454D;}
	.st1{fill:#E48B25;}
</style>
<g>
	<path class="st0" d="M109.5,93.9V7.8h19.4v33.2h29.7V7.8h19.6v86.2h-19.6V58h-29.7v35.9H109.5z"/>
	<path class="st0" d="M206.6,18.7c-3.3,0-5.9-0.9-8.1-2.8c-2.1-1.9-3.2-4.3-3.2-7.3c0-3,1.1-5.4,3.2-7.3c2.1-1.8,4.8-2.8,8.1-2.8
		c3.3,0,6.1,0.9,8.1,2.8c2.1,1.9,3.1,4.3,3.1,7.3c0,3-1,5.4-3.1,7.3C212.7,17.8,210,18.7,206.6,18.7z M197,93.9V28.4h19.4v65.5H197z
		"/>
	<path class="st0" d="M256.9,95.5c-4.1,0-7.7-0.8-11-2.4s-6.1-3.9-8.5-6.8c-2.3-3-4.1-6.5-5.4-10.8c-1.3-4.2-1.9-9-1.9-14.4
		c0-5.4,0.8-10.2,2.3-14.4c1.5-4.2,3.6-7.8,6.1-10.8c2.5-3,5.4-5.2,8.7-6.8c3.3-1.6,6.7-2.4,10.1-2.4c3.7,0,6.7,0.6,9.1,1.8
		c2.4,1.2,4.7,2.9,7,5l-0.8-10V1.3H292v92.6h-15.9l-1.3-6.5h-0.5c-2.3,2.3-5,4.2-8.1,5.7C263.2,94.7,260,95.5,256.9,95.5z
		 M261.9,79.6c2.1,0,4-0.4,5.7-1.3c1.7-0.9,3.4-2.4,5-4.6V46.9c-1.8-1.6-3.6-2.7-5.4-3.3c-1.8-0.6-3.7-0.9-5.4-0.9
		c-3.1,0-5.8,1.5-8.2,4.4c-2.4,3-3.6,7.6-3.6,13.8c0,6.5,1,11.3,3.1,14.3C255.2,78.1,258.1,79.6,261.9,79.6z"/>
	<path class="st0" d="M309.2,93.9V28.4h15.9l1.3,11.5h0.5c2.4-4.5,5.2-7.8,8.6-9.9c3.3-2.1,6.7-3.2,10-3.2c1.9,0,3.4,0.1,4.6,0.3
		c1.2,0.2,2.3,0.6,3.2,1l-3.2,16.8c-1.2-0.4-2.4-0.6-3.4-0.8c-1.1-0.2-2.3-0.3-3.7-0.3c-2.5,0-5,0.9-7.7,2.6
		c-2.7,1.8-4.9,4.9-6.7,9.4v38.1H309.2z"/>
	<path class="st0" d="M388.6,95.5c-4.1,0-8.1-0.8-12-2.3c-3.9-1.5-7.3-3.8-10.2-6.7c-3-2.9-5.3-6.5-7.1-10.8
		c-1.8-4.3-2.6-9.1-2.6-14.6c0-5.5,0.9-10.3,2.6-14.6c1.8-4.3,4.1-7.9,7.1-10.8c3-2.9,6.4-5.1,10.2-6.7c3.9-1.5,7.9-2.3,12-2.3
		c4.1,0,8.1,0.8,12,2.3c3.8,1.5,7.2,3.8,10.2,6.7c3,2.9,5.3,6.5,7.1,10.8c1.8,4.3,2.6,9.1,2.6,14.6c0,5.5-0.9,10.3-2.6,14.6
		c-1.8,4.3-4.1,7.9-7.1,10.8c-3,2.9-6.3,5.1-10.2,6.7C396.7,94.7,392.8,95.5,388.6,95.5z M388.6,79.8c4,0,7-1.7,9-5
		c2-3.3,3-7.9,3-13.6c0-5.7-1-10.3-3-13.6c-2-3.3-5-5-9-5c-4.1,0-7.1,1.7-9.1,5c-2,3.3-3,7.9-3,13.6c0,5.7,1,10.3,3,13.6
		C381.5,78.1,384.6,79.8,388.6,79.8z"/>
	<path class="st0" d="M430.9,67.4V53.6h32.5v13.7H430.9z"/>
	<path class="st1" d="M501.5,95.5c-8.2,0-14.7-3-19.5-8.9c-4.8-5.9-7.2-14.3-7.2-25c0-5.3,0.8-10,2.3-14.3c1.5-4.2,3.6-7.8,6.1-10.7
		c2.6-2.9,5.5-5.2,8.8-6.7c3.3-1.6,6.7-2.4,10.2-2.4c3.7,0,6.8,0.6,9.4,1.9c2.6,1.3,5.1,3,7.7,5.2l-0.5-10.4V0.6H534v93.3h-12.6
		l-1.1-7h-0.5c-2.4,2.4-5.2,4.4-8.3,6.1C508.3,94.7,505,95.5,501.5,95.5z M505.2,83c4.8,0,9.4-2.4,13.6-7.3V45.4
		c-2.3-2-4.5-3.4-6.7-4.2c-2.2-0.8-4.3-1.2-6.5-1.2c-4.2,0-7.8,1.8-10.7,5.6c-2.9,3.7-4.4,9-4.4,15.9c0,7,1.3,12.4,3.8,16.1
		C496.8,81.1,500.4,83,505.2,83z"/>
	<path class="st1" d="M584.7,95.5c-3,0-6-0.7-9.1-2.2c-3-1.5-5.9-3.5-8.7-6.3h-0.4l-1.3,6.9h-12V0.6h15.2v24.1l-0.4,10.8
		c2.7-2.4,5.7-4.3,8.9-5.8c3.2-1.5,6.5-2.2,9.8-2.2c4.1,0,7.7,0.8,10.8,2.3c3.2,1.5,5.9,3.7,8.1,6.6c2.2,2.9,3.9,6.3,5,10.4
		c1.1,4.1,1.7,8.6,1.7,13.6c0,5.6-0.8,10.5-2.3,14.9c-1.5,4.4-3.6,8-6.1,11c-2.6,3-5.5,5.3-8.9,6.9
		C591.8,94.7,588.3,95.5,584.7,95.5z M581.6,83c4.3,0,7.9-1.9,10.8-5.6c2.9-3.7,4.4-9.3,4.4-16.7c0-6.5-1.1-11.6-3.3-15.2
		c-2.2-3.6-5.8-5.4-10.7-5.4c-4.6,0-9.3,2.4-14.3,7.3v30.3c2.3,2,4.6,3.4,6.8,4.2C577.5,82.6,579.6,83,581.6,83z"/>
</g>
</svg>
