<?xml version="1.0" encoding="utf-8"?>
<!-- Generator: Adobe Illustrator 24.0.1, SVG Export Plug-In . SVG Version: 6.00 Build 0)  -->
<svg version="1.0" id="Layer_2" xmlns="http://www.w3.org/2000/svg" xmlns:xlink="http://www.w3.org/1999/xlink" x="0px" y="0px"
	 viewBox="0 0 512 512" enable-background="new 0 0 512 512" xml:space="preserve">
<path fill="none" stroke="#000000" stroke-width="20" stroke-miterlimit="10" d="M506.9,185.6c0,52.6-16.3,100-42.3,132.9
	c-23.1,29.3-53.8,47.1-87.5,47.1h-130c23,0,44.4-9.5,62.7-26c34.9-31.6,58.3-88.7,58.3-154s-23.3-122.4-58.3-154
	c-18.3-16.5-39.7-26-62.7-26h130c33.7,0,64.5,17.9,87.5,47.1C490.7,85.6,506.9,133,506.9,185.6z"/>
<path fill="none" stroke="#000000" stroke-width="20" stroke-miterlimit="10" d="M368.1,185.6c0,65.3-23.3,122.4-58.3,154
	c-18.3,16.5-39.7,26-62.7,26c-7.8,0-15.5-1.1-22.9-3.2c6.3-17,13.9-27.6,23.1-29.5c5.2-1.1,10.8-2.8,16.6-5.2c0.1,0,0.2-0.1,0.3-0.1
	c1.9-0.8,3.8-1.7,5.7-2.6c0.1,0,0.1-0.1,0.2-0.1c22-11.8,40.1-39,50-74.2c0.2-1.5,0.4-3,0.5-4.6H179.2c0,0-3.3,1.1-8.8,3.5
	c-7.3,3.2-18.6,8.6-31.3,16.9c-8.2-24.3-12.8-51.7-12.8-80.8c0-72.4,28.7-134.7,70.1-163.3C211.7,11.5,229,5.6,247.2,5.6
	c23,0,44.4,9.5,62.7,26C344.8,63.2,368.1,120.3,368.1,185.6z"/>
<line fill="none" stroke="#000000" stroke-width="20" stroke-linecap="round" stroke-linejoin="round" stroke-miterlimit="10" x1="502" y1="366.9" x2="230.6" y2="366.9"/>
<line fill="none" stroke="#000000" stroke-width="20" stroke-linecap="round" stroke-linejoin="round" stroke-miterlimit="10" x1="10" y1="358.4" x2="61.7" y2="358.4"/>
<path fill="none" stroke="#000000" stroke-width="16" stroke-linejoin="round" stroke-miterlimit="10" d="M110.8,404.2
	c0.3,6,0.2,11.5-0.3,16.5C110.5,415.5,110.6,410,110.8,404.2z"/>
<path fill="none" stroke="#000000" stroke-width="20" stroke-linejoin="round" stroke-miterlimit="10" d="M320.1,250.6
	c-5,40-27.5,62.8-50,74.2C292.1,313,310.2,285.8,320.1,250.6z"/>
<path fill="none" stroke="#000000" stroke-width="20" stroke-linecap="round" stroke-linejoin="round" stroke-miterlimit="10" d="
	M186.2,317.9c-11.7,8-15.5,11.1-15.5,29.3"/>
<path fill="none" stroke="#000000" stroke-width="20" stroke-linecap="round" stroke-linejoin="round" stroke-miterlimit="10" d="
	M126.2,342c0,0-13.4,6.8-14.3,20.1"/>
<line fill="none" stroke="#000000" stroke-width="20" stroke-linecap="round" stroke-linejoin="round" stroke-miterlimit="10" x1="170.7" y1="384.4" x2="170.7" y2="400.7"/>
<path fill="none" stroke="#000000" stroke-width="20" stroke-linecap="round" stroke-linejoin="round" stroke-miterlimit="10" d="
	M320.6,246c-0.1,1.5-0.3,3.1-0.5,4.6c-9.9,35.3-28,62.5-50,74.2c-0.1,0-0.1,0.1-0.2,0.1c-1.9,1-3.8,1.8-5.7,2.6
	c-0.1,0-0.2,0.1-0.3,0.1c-5.7,2.4-11.3,4.1-16.6,5.2c-9.2,1.9-16.8,12.5-23.1,29.5c-7.7,20.7-13.5,51-18.1,86.8
	c-6.4,49.9-24.2,56.3-51.4,55.3c-27.6-1.1-43.9-19.8-44.1-83.7c0.5-5.1,0.6-10.6,0.3-16.5c-0.2,5.8-0.3,11.3-0.3,16.5
	c-5.4,58.8-59.5,58.1-59.7,7.1c-0.4-87.7,50.4-137,88.2-161.5c12.7-8.3,24-13.7,31.3-16.9c5.5-2.4,8.8-3.5,8.8-3.5H320.6z"/>
<path fill="none" stroke="#000000" stroke-width="20" stroke-linecap="round" stroke-linejoin="round" stroke-miterlimit="10" d="
	M264.2,327.5c1.9-0.8,3.8-1.7,5.7-2.6C268,325.9,266.1,326.8,264.2,327.5z"/>
<path fill="none" stroke="#000000" stroke-width="20" stroke-linecap="round" stroke-linejoin="round" stroke-miterlimit="10" d="
	M320.1,250.6c0.2-1.5,0.4-3,0.5-4.6H179.2c0,0-3.3,1.1-8.8,3.5c-5.1-18.5-7.9-39.1-7.9-60.9c0-78.8,37.1-142.6,82.9-142.6
	s82.9,63.8,82.9,142.6C328.3,210.8,325.3,231.8,320.1,250.6z"/>
<line fill="none" stroke="#000000" stroke-width="20" stroke-linecap="round" stroke-linejoin="round" stroke-miterlimit="10" x1="368.1" y1="324.3" x2="408" y2="324.3"/>
</svg>
