<svg height="512" viewBox="0 0 60 57" width="512" xmlns="http://www.w3.org/2000/svg"><g id="011---Sewage"><path id="Shape" d="m37.26 26c.4884673-1.9627025.7369502-3.9774294.74-6 0-8.37-4.29-16-9-16-5.21 0-11.12 10.39-8.25 22z"/><path id="Shape" d="m59 40h-14c7.17 0 13-9 13-20s-5.83-20-13-20h-9.76c11.65 7.86 11.67 32.13 0 40h-6.24c7.17 0 13-9 13-20s-5.83-20-13-20c-9 0-15.73 14.28-11.94 27.79.6-.3466667 1.21-.68 1.83-1-3.28-12.51 2.95-24.79 10.11-24.79 7.44 0 13.47 13 10 25.28-1.82 6.47-5.7 10.66-9.91 10.72-.9634372.3160234-1.7319024 1.0513968-2.09 2h-2.2c1-2.37 2.32-3.68 4-4h.2c3 0 6-3.16 7.68-8h-15.5l-.73.29c-5.3448474 2.2119675-9.6245017 6.4091829-11.94 11.71h-7.51c-.55228475 0-1 .4477153-1 1s.44771525 1 1 1h6.81c-.62408382 2.278627-.89722022 4.639065-.81 7 0 1.1045695.8954305 2 2 2h1c1.1045695 0 2-.8954305 2-2v-3c0-.5522847.4477153-1 1-1s1 .4477153 1 1v5.56c-.0303757 2.4852814 1.9597186 4.5246243 4.445 4.555s4.5246243-1.9597186 4.555-4.445c.0392722-3.2555724.4281701-6.4975059 1.16-9.67h34.84c.5522847 0 1-.4477153 1-1s-.4477153-1-1-1zm-43.55-1.11c-.4778446.264761-.8804731.6467419-1.17 1.11-.1797532.3028656-.2763425.6478276-.28 1 0 .5522847-.4477153 1-1 1s-1-.4477153-1-1c-.0012201-.3383013.0459233-.6750402.14-1 .3876603-1.245158 1.2547484-2.2849441 2.41-2.89.3211808-.1932607.7234705-.1906728 1.0421383.0067041.3186678.1973768.5001928.5563928.4702434.9300368s-.2663431.6991617-.6123817.8432591zm5.55 6.11c0 .5522847-.4477153 1-1 1s-1-.4477153-1-1v-2c0-.5522847.4477153-1 1-1s1 .4477153 1 1zm1.46-9.11c-1.0148421.6950241-1.5735885 1.8852304-1.46 3.11 0 .5522847-.4477153 1-1 1s-1-.4477153-1-1c-.1294636-1.978213.8538224-3.8638085 2.55-4.89.4916536-.2469243 1.0904244-.050313 1.34.44.2484034.4890062.056561 1.0868406-.43 1.34zm19.54.11c0-.5522847.4477153-1 1-1h5c.5522847 0 1 .4477153 1 1s-.4477153 1-1 1h-5c-.5522847 0-1-.4477153-1-1z"/></g></svg>