<?xml version="1.0" encoding="utf-8"?>
<!-- Generator: Adobe Illustrator 24.0.1, SVG Export Plug-In . SVG Version: 6.00 Build 0)  -->
<svg version="1.1" id="Layer_1" focusable="false" xmlns="http://www.w3.org/2000/svg" xmlns:xlink="http://www.w3.org/1999/xlink"
	 x="0px" y="0px" viewBox="0 0 524.8 525" enable-background="new 0 0 524.8 525" xml:space="preserve">
<path fill="none" stroke="#000000" stroke-width="26" stroke-miterlimit="10" d="M514,115.6c-2.2-9-13.5-12.1-20.1-5.5l-54,54
	c-12.8,12.8-31,18.6-48.8,15.6l0,0c-23.6-3.9-42.1-22.4-46-46v0c-3-17.8,2.9-36,15.6-48.8l54-54c6.6-6.6,3.4-17.9-5.7-20.2
	C361.7-1,309.5,11.6,272.5,48.7c-36.3,36.3-48.5,87.7-37.6,134.6c1.9,8.1-0.4,16.6-6.3,22.5L25.7,408.6c-24.3,24.3-25.9,63.7-2.7,89
	c24.8,27.1,66.8,27.8,92.5,2.1l203.3-203.3c5.9-5.9,14.4-8.2,22.5-6.3c46.9,11.1,98.1-1.2,134.7-37.8
	C513.2,215.3,525.8,163,514,115.6z M68.7,478.4c-12-0.8-21.7-10.5-22.4-22.5c-0.8-13.9,10.2-25.5,24-25.5c13.3,0,24,10.7,24,24
	C94.3,468.3,82.7,479.3,68.7,478.4z"/>
</svg>
