<?xml version="1.0" encoding="utf-8"?>
<!-- Generator: Adobe Illustrator 24.0.1, SVG Export Plug-In . SVG Version: 6.00 Build 0)  -->
<svg version="1.1" id="Layer_1" focusable="false" xmlns="http://www.w3.org/2000/svg" xmlns:xlink="http://www.w3.org/1999/xlink"
	 x="0px" y="0px" viewBox="0 0 512 512" style="enable-background:new 0 0 512 512;" xml:space="preserve">
<path d="M507.7,109.1c-2.2-9-13.5-12.1-20.1-5.5l-54,54c-12.8,12.8-31,18.6-48.8,15.6l0,0c-23.6-3.9-42.1-22.4-46-46v0
	c-3-17.8,2.9-36,15.6-48.8l54-54c6.6-6.6,3.4-17.9-5.7-20.2c-47.4-11.7-99.6,0.9-136.6,37.9c-36.3,36.3-48.5,87.7-37.6,134.6
	c1.9,8.1-0.4,16.6-6.3,22.5L19.4,402.1c-24.3,24.3-25.9,63.7-2.7,89c24.8,27.1,66.8,27.8,92.5,2.1l203.3-203.3
	c5.9-5.9,14.4-8.2,22.5-6.3c46.9,11.1,98.1-1.2,134.7-37.8C506.9,208.8,519.5,156.5,507.7,109.1z M62.4,471.9
	c-12-0.8-21.7-10.5-22.4-22.5C39.2,435.6,50.3,424,64,424c13.3,0,24,10.7,24,24C88,461.8,76.4,472.8,62.4,471.9z"/>
</svg>
