<?xml version="1.0" encoding="utf-8"?>
<!-- Generator: Adobe Illustrator 24.3.0, SVG Export Plug-In . SVG Version: 6.00 Build 0)  -->
<svg version="1.1" id="Capa_1" xmlns="http://www.w3.org/2000/svg" xmlns:xlink="http://www.w3.org/1999/xlink"
	 viewBox="0 0 24 24" style="enable-background:new 0 0 24 24;" xml:space="preserve" width='24' height='24'>
<path d="M12,1.2C6.1,1.2,1.2,6.1,1.2,12S6.1,22.8,12,22.8S22.8,17.9,22.8,12S17.9,1.2,12,1.2z M13.1,21c-1.6,0.2-3.3-0.2-4.8-0.7
	c-0.1-0.3-0.2-0.5-0.2-0.8c0-0.5,0.3-0.8,0.8-0.8c0.5,0,0.9,0.1,1.4,0.2c3.8,0.7,6.8,0.3,7.9-0.3C17.5,19.6,15,20.8,13.1,21z
	 M20.1,16c0,0-2.6,1.7-10.5-0.5c-1.3-0.4-2.6-0.8-4-1.2c-0.5-0.2-1.8-0.7-2.5,0.1c-0.7-2.2-0.2-3.9-0.2-3.9s0.1-0.1,0.1-0.2
	c0.7-0.8,1.5-1,2.5-0.9c1.4,0.1,2.6,0.6,3.8,1.3c1.9,1.1,3.7,2.3,5.7,3.1c4.4,1.9,5.3,0.8,5.5,0.7C20.5,15.5,20.1,16,20.1,16z
	 M20.8,9.9c0.1,0.6,0.2,1.3,0.2,2c-0.3,0.5-0.6,0.7-1.3,0.5C18.6,12,17.3,11,14.8,9c-1.2-1-2.6-1.8-4-2.6C9.5,5.8,8.1,5.5,6.7,5.7
	c-0.4,0-0.8,0.1-1.3,0.3c0.9-1,2-1.7,3.2-2.2c0.1,0,4.1-0.6,7.1,2.8C18.2,9.3,19.8,10,20,10C20.2,10.1,20.6,10.1,20.8,9.9z"/>
</svg>
