<?xml version="1.0" encoding="utf-8"?>
<!-- Generator: Adobe Illustrator 24.3.0, SVG Export Plug-In . SVG Version: 6.00 Build 0)  -->
<svg version="1.1" id="Layer_1" xmlns="http://www.w3.org/2000/svg" xmlns:xlink="http://www.w3.org/1999/xlink" x="0px" y="0px"
	 viewBox="0 0 22 22" xml:space="preserve">

<path id="_xD83D__xDD39_-Icon-Color" class="st0" d="M11,7c-2.2,0-4,1.8-4,4s1.8,4,4,4s4-1.8,4-4S13.2,7,11,7z M19.9,10
	c-0.5-4.2-3.8-7.5-7.9-7.9V1c0-0.5-0.4-1-1-1s-1,0.5-1,1v1.1C5.8,2.5,2.5,5.8,2.1,10H1c-0.5,0-1,0.4-1,1s0.5,1,1,1h1.1
	c0.5,4.2,3.8,7.5,7.9,7.9V21c0,0.5,0.4,1,1,1s1-0.5,1-1v-1.1c4.2-0.5,7.5-3.8,7.9-7.9H21c0.5,0,1-0.4,1-1s-0.5-1-1-1H19.9z M11,18
	c-3.9,0-7-3.1-7-7s3.1-7,7-7s7,3.1,7,7S14.9,18,11,18z"/>
</svg>
