<?xml version="1.0" encoding="utf-8"?>
<!-- Generator: Adobe Illustrator 24.3.0, SVG Export Plug-In . SVG Version: 6.00 Build 0)  -->
<svg version="1.1" id="Layer_1" xmlns="http://www.w3.org/2000/svg" xmlns:xlink="http://www.w3.org/1999/xlink"
	 viewBox="0 0 24 24" style="enable-background:new 0 0 24 24;" xml:space="preserve" width='24' height='24'>
<path d="M22.2,3.6C22.2,3,21.6,2.4,21,2.4H3C2.4,2.4,1.8,3,1.8,3.6h0v16.7c0,0.7,0.6,1.3,1.3,1.3H21c0.7,0,1.3-0.6,1.3-1.3L22.2,3.6
	L22.2,3.6z M8.2,20.3H3v-3.8h5.1V20.3z M8.2,15.3H3v-3.9h5.1V15.3z M8.2,10.1H3V6.2h5.1V10.1z M14.6,20.3H9.4v-3.8h5.1V20.3z
	 M14.6,15.3H9.4v-3.9h5.1V15.3z M14.6,10.1H9.4V6.2h5.1V10.1z M21,20.3h-5.1v-3.8H21V20.3z M21,15.3h-5.1v-3.9H21V15.3z M21,10.1
	h-5.1V6.2H21V10.1z"/>
</svg>
